<?xml version="1.0" encoding="UTF-8" standalone="no"?>
<svg
   xmlns:dc="http://purl.org/dc/elements/1.1/"
   xmlns:cc="http://creativecommons.org/ns#"
   xmlns:rdf="http://www.w3.org/1999/02/22-rdf-syntax-ns#"
   xmlns:svg="http://www.w3.org/2000/svg"
   xmlns="http://www.w3.org/2000/svg"
   xmlns:sodipodi="http://sodipodi.sourceforge.net/DTD/sodipodi-0.dtd"
   xmlns:inkscape="http://www.inkscape.org/namespaces/inkscape"
   width="256px"
   height="206px"
   viewBox="0 0 256 206"
   version="1.1"
   preserveAspectRatio="xMidYMid"
   id="svg3779"
   sodipodi:docname="hardened-google-cloud-logo.svg"
   inkscape:version="0.92.3 (2405546, 2018-03-11)">
  <metadata
     id="metadata3785">
    <rdf:RDF>
      <cc:Work
         rdf:about="">
        <dc:format>image/svg+xml</dc:format>
        <dc:type
           rdf:resource="http://purl.org/dc/dcmitype/StillImage" />
      </cc:Work>
    </rdf:RDF>
  </metadata>
  <defs
     id="defs3783" />
  <sodipodi:namedview
     pagecolor="#ffffff"
     bordercolor="#666666"
     borderopacity="1"
     objecttolerance="10"
     gridtolerance="10"
     guidetolerance="10"
     inkscape:pageopacity="0"
     inkscape:pageshadow="2"
     inkscape:window-width="1920"
     inkscape:window-height="1025"
     id="namedview3781"
     showgrid="false"
     inkscape:zoom="4.0970874"
     inkscape:cx="128"
     inkscape:cy="103"
     inkscape:window-x="0"
     inkscape:window-y="27"
     inkscape:window-maximized="1"
     inkscape:current-layer="g3824" />
  <g
     id="g3777">
    <g
       id="g3824"
       transform="translate(0.24407583)">
      <path
         style="fill:#808080"
         id="path3769"
         d="m 170.2517,56.8186 22.253,-22.253 1.483,-9.37 c -40.551,-36.873 -105.012,-32.692 -141.567,8.724 -10.154,11.503 -17.687,25.844 -21.704,40.653 l 7.97,-1.123 44.505,-7.339 3.436,-3.514 c 19.797,-21.742 53.27,-24.667 76.128,-6.168 z"
         inkscape:connector-curvature="0" />
      <path
         style="fill:#808080"
         id="path3771"
         d="m 224.2048,73.9182 c -5.115,-18.836 -15.616,-35.769 -30.217,-48.722 l -31.232,31.232 c 13.188,10.776 20.701,27.01 20.379,44.037 v 5.544 c 15.351,0 27.797,12.445 27.797,27.796 0,15.352 -12.446,27.485 -27.797,27.485 h -55.671 l -5.466,5.934 v 33.34 l 5.466,5.231 h 55.671 c 39.93,0.311 72.552,-31.494 72.863,-71.424 0.188,-24.203 -11.745,-46.893 -31.793,-60.453"
         inkscape:connector-curvature="0" />
      <path
         style="fill:#808080"
         id="path3773"
         d="m 71.8704,205.7957 h 55.593 v -44.506 h -55.593 c -3.961,-0.001 -7.797,-0.852 -11.399,-2.498 l -7.887,2.42 -22.409,22.253 -1.952,7.574 c 12.567,9.489 27.9,14.825 43.647,14.757"
         inkscape:connector-curvature="0" />
      <path
         style="fill:#808080"
         id="path3775"
         d="m 71.8704,61.4255 c -39.931,0.238 -72.107,32.802 -71.869,72.732 0.133,22.298 10.547,43.288 28.222,56.881 l 32.248,-32.247 c -13.991,-6.321 -20.208,-22.786 -13.887,-36.776 6.32,-13.99 22.786,-20.207 36.775,-13.887 6.165,2.785 11.102,7.723 13.887,13.887 l 32.248,-32.247 c -13.721,-17.937 -35.041,-28.424 -57.624,-28.343"
         inkscape:connector-curvature="0" />
    </g>
  </g>
</svg>
